<svg id="图层_1" data-name="图层 1" xmlns="http://www.w3.org/2000/svg" viewBox="0 0 400 200"><defs><style>.cls-1{fill:#f8f8f8;}</style></defs><title>LOGO.grey-01</title><path class="cls-1" d="M312.61,114.66a50.33,50.33,0,0,0-31-22.38q-1.89-.47-3.84-.78a51.4,51.4,0,0,0-8.85-.74,53.39,53.39,0,0,0-7.78.57C253,47,208.52,17.35,161.83,25.07c-29.32,4.85-53.89,23.77-65,50-32,7.8-51.2,38.72-43,69.05s40.79,48.6,72.75,40.8a62,62,0,0,0,14.41-5.49c29.26,12.6,63.49,8.65,88.71-10.26,17.69,20.5,49.54,23.51,71.14,6.72,19.2-14.93,24.14-40.86,11.68-61.22ZM111.77,172.18c-24.53,0-44.41-18.88-44.41-42.16,0-16,9.5-30.56,24.55-37.7-5,29.78,7.64,59.77,33,78A46.93,46.93,0,0,1,111.77,172.18ZM294.3,161.9a36.18,36.18,0,0,1-25.42,10.27h0c-17.35,0-32.11-12-34.82-28.25-22.46,30.16-66.42,37.33-98.2,16C117.2,147.4,106.09,127,106.1,105.3a64,64,0,0,1,8.56-31.92C133.22,40.92,176,28.89,210.19,46.51c19.58,10.08,33,28.35,36.14,49.27A49.83,49.83,0,0,0,225,115a36.26,36.26,0,0,0,13.9,6.24,35.27,35.27,0,0,1,22.19-15.1c.43-.1.86-.19,1.3-.26a36.51,36.51,0,0,1,6.52-.58h1a37,37,0,0,1,13.28,2.84,35.89,35.89,0,0,1,7.36,4.19,35,35,0,0,1,2.81,2.32A32.23,32.23,0,0,1,294.3,161.9Z"/><path class="cls-1" d="M275.69,61.58a29.5,29.5,0,0,0,14.57,20.08,1.38,1.38,0,0,1,.77,1.22v3.77a2.63,2.63,0,0,1-2.22,2.61c-.33.06-.69.13-1.94.41-.55.12-1,.23-1.3.31l.28.23a50.25,50.25,0,0,1,29.65,22h0a44.93,44.93,0,0,1,2.49,4.62h30c-1.09-13.12-14.69-24-33.05-27.61a2.63,2.63,0,0,1-2.22-2.6V82.86a1.38,1.38,0,0,1,.76-1.22,29.54,29.54,0,0,0,14.64-20.37,12.87,12.87,0,0,0,6.12-10.84,12.39,12.39,0,0,0-1.43-5.71,22.09,22.09,0,0,0,3-11.06c0-12-9.86-22-23.08-24.63A30.23,30.23,0,0,0,296.7,4.74c-16.15.23-29.05,12.83-28.83,28.15a26.71,26.71,0,0,0,2.78,11.4A12.64,12.64,0,0,0,275.69,61.58Z"/></svg>